<?xml version="1.0" encoding="UTF-8"?>
<svg version="1.1" viewBox="0 0 2048 2048" width="1280" height="1280" xmlns="http://www.w3.org/2000/svg">
<path transform="translate(1e3 151)" d="m0 0h44l31 2 32 4 28 5 30 7 36 11 27 10 32 14 22 11 23 13 19 12 19 13 19 14 13 11 11 9 12 11 13 12 14 14 7 8 11 12 9 11 11 14 14 19 15 23 13 22 14 26 12 26 11 28 12 36 7 26 7 35 4 26 3 34 1 23v23l-1 26-4 43-7 49-9 47-11 47-12 45-13 43-12 36-10 29-18 47-14 34-11 25-15 33-19 39-16 31-13 23-16 28-15 24-12 19-15 22-12 17-16 21-10 13-9 11-11 13-12 14-9 9-7 8-21 21-8 7-3 3v37l-3 32-5 29-8 30-8 23-9 21-8 16-9 17-18 27-13 17-13 15-16 17-8 7-11 10-14 11-18 13-21 13-29 15-27 11-28 9-26 6-25 4-21 2h-49l-21-2-30-5-24-6-30-10-21-9-19-9-19-11-21-14-12-9-11-9-14-12-22-22-9-11-11-13-13-19-9-14-12-21-9-19-11-28-7-23-7-30-4-28-1-13v-49l3-29 6-31 7-25 8-23 11-25 13-25 14-22 14-19 11-13 22-24 20-18-2-6-15-32-15-34-19-47-15-40-19-56-13-42-15-55-11-46-12-60-7-44-5-41-3-37-1-29v-23l1-25 4-39 6-35 7-31 9-30 11-31 12-28 12-25 13-23 12-20 13-19 13-18 13-16 11-13 22-24 14-14 8-7 12-11 11-9 15-12 18-13 15-10 21-13 18-10 23-12 29-13 29-11 32-10 28-7 31-6 29-4 21-2zm-12 29-39 4-35 6-40 10-36 12-29 12-25 12-21 11-20 12-18 12-14 10-13 10-16 13-11 10-8 7-32 32-9 11-12 14-15 20-20 30-14 24-15 29-12 28-10 27-9 29-7 29-6 33-4 35-1 14v60l3 40 5 42 8 49 10 50 12 50 11 41 12 40 16 49 11 31 15 39 14 34 16 36 14 30 9-5 15-10 26-14 25-11 36-12 30-7 27-4 25-2h32l27 2 10-16 13-23 15-30 11-27 8-24 6-24 4-24 1-9v-36l-3-21-5-20-8-21-11-21-11-16-9-11-11-12-10-10-11-9-17-13-19-12-22-12-25-11-17-6-38-1-35-4-29-6-26-8-21-8-26-13-17-11-12-9-11-9-20-20-10-13-5-8 10-6 15-8 2 5 8 10 9 10 11 11 17 13 14 9 20 11 25 10 19 6 27 6 30 4 14 1 35 1 20 7 21 9 24 12 23 14 18 13 13 11 8 7 19 19 11 14 11 16 9 16 8 17 9 27 5 26 2 24v15l-2 26-4 23-6 25-10 30-10 24-14 29-9 17-10 17v2l30 8 24 8 26 11 20 10 20 12 16 11 12 9 11 9 14 12 20 20 9 11 11 13 14 20 13 21 14 27 11 27 8 24 6 24 4 21 4-2 14-14 7-8 15-16 9-11 11-13 13-17 10-13 13-18 22-33 14-22 9-15 14-24 16-29 15-29 14-28 13-28 15-34 19-47 15-40 14-40 14-45 12-43 10-40 10-47 8-48 4-32 3-37v-58l-3-34-5-33-6-28-7-26-12-36-12-29-15-31-13-23-12-19-11-16-14-19-11-13-9-11-12-13-30-30-8-7-13-11-17-13-15-11-15-10-21-13-24-13-22-11-24-10-30-11-31-9-25-6-35-6-39-4zm-159 1050-27 3-26 5-25 7-25 9-26 12-18 10-17 11-15 11-10 8-14 12-22 22-9 11-12 15-14 21-12 21-13 27-10 28-6 21-5 25-3 23-1 16v31l2 24 5 30 7 28 10 28 11 24 12 22 14 21 9 12 9 11 9 10 11 12 16 15 14 11 13 10 17 11 21 12 23 11 27 10 25 7 24 5 24 3 15 1h31l25-2 30-5 27-7 26-9 20-9 20-10 21-13 14-10 14-11 14-12 22-22 9-11 10-12 13-19 12-20 10-19 11-26 9-28 6-26 4-28 1-11v-47l-3-27-5-26-7-26-10-27-14-29-11-19-13-19-11-14-11-13-14-15-15-14-14-11-13-10-17-11-17-10-22-11-23-9-21-7-30-7-27-4-12-1z" fill="#C69C6D"/>
<path transform="translate(852,1296)" d="m0 0 26 1 23 3 23 5 30 10 20 9 20 11 15 10 13 10 14 12 20 20 11 14 11 15 14 24 9 19 9 25 6 23 4 23 2 31-1 25-3 24-6 26-9 27-10 22-12 21-12 17-13 16-14 15-15 14-13 10-21 14-16 9-19 9-25 9-24 6-25 4-11 1h-37l-25-3-24-5-20-6-22-9-16-8-16-9-16-11-14-11-12-11-8-7-7-8-12-14-13-18-11-19-8-16-8-19-7-21-6-28-3-25v-37l3-26 6-27 9-27 9-20 9-17 14-21 10-13 9-10 7-8 9-9 8-7 15-12 18-12 16-9 16-8 20-8 23-7 25-5 18-2zm-13 29-19 2-25 5-20 6-24 10-22 12-17 12-10 8-10 9-7 6-7 8-9 10-14 19-11 19-11 23-8 24-5 21-3 21-1 14v19l3 29 5 23 5 16 6 16 9 19 12 20 9 12 9 11 9 10 13 13 14 11 15 11 23 13 20 9 21 7 21 5 22 3 13 1h19l23-2 26-5 23-7 21-9 21-11 12-8 12-9 11-9 23-23 13-17 10-15 12-22 10-25 7-25 4-24 1-12v-31l-3-26-5-22-9-27-13-27-12-19-11-14-12-14-13-13-11-9-13-10-21-13-25-12-30-10-25-5-20-2z" fill="#C69C6D"/>
<path transform="translate(853,1375)" d="m0 0 22 1 19 3 22 6 21 9 17 9 14 10 11 9 13 12 9 11 10 13 9 15 10 21 6 18 5 23 1 8 1 21-1 20-4 23-6 20-9 21-9 16-10 14-11 13-14 14-14 11-17 11-25 12-22 7-22 4-9 1h-31l-21-3-23-6-20-8-17-9-12-8-14-11-13-12-9-10-12-16-11-19-9-20-7-24-3-17-1-9v-31l3-22 5-19 7-19 10-20 8-12 10-13 11-12 10-10 17-13 20-12 20-9 23-7 23-4zm-13 29-19 3-21 6-18 8-14 8-16 12-13 12-9 10-11 16-9 16-8 21-5 21-2 19v15l3 24 5 19 8 19 8 15 11 15 9 10 13 13 18 13 21 11 16 6 21 5 19 2h15l19-2 21-5 16-6 16-8 14-9 10-8 12-11 9-10 12-17 10-19 7-19 5-23 1-8v-29l-4-24-8-24-10-20-12-17-12-13-9-9-13-10-13-8-21-10-19-6-24-4z" fill="#C69C6D"/>
<path transform="translate(1446,694)" d="m0 0 16 8 9 5-2 6-10 13-12 14-14 13-17 13-15 10-24 13-27 11-23 7-26 6-29 4-28 2-26 1-28 11-26 13-23 14-16 12-11 9-12 11-10 10-11 14-10 14-11 20-8 20-6 23-3 20v41l4 27 7 28 9 27 13 30 13 26 14 24 12 19-2 4-17 11-5 2-14-22-13-23-12-23-11-24-11-29-8-27-6-29-2-15-1-15v-25l2-21 5-24 5-17 8-19 11-21 10-15 11-14 11-12 17-17 11-9 16-12 20-13 22-12 23-11 27-10 4-1 37-1 30-3 31-6 24-7 20-8 19-9 18-11 16-12 13-12 9-9 10-13z" fill="#C69C6D"/>
<path transform="translate(549,738)" d="m0 0 14 3 21 7 21 9 17 8 21 12 22 15 14 11 14 12 25 25 9 11 13 17 10 14 11 12 9 9 14 10 16 8 18 6 11 2h33l20-4 18-6 5-1 8 14 5 11-14 6-20 6-17 3-11 1h-22l-21-3-17-5-17-7-15-9-13-10-15-14-9-11-9-12-10-14-11-13-9-10-16-16-11-9-17-13-20-13-22-12-22-10-36-12 2-13z" fill="#C69C6D"/>
<path transform="translate(1477,749)" d="m0 0h2l5 23v5l-30 10-23 10-25 13-20 13-16 12-14 12-12 11-14 15-11 14-13 18-8 10-9 10-10 10-13 10-15 9-15 7-20 6-19 3h-27l-21-3-19-5-16-6-3-2 2-6 10-19 5 1 18 6 20 4 12 1h10l18-2 15-4 12-5 13-7 12-9 12-11 11-13 13-19 11-13 9-11 21-21 11-9 12-10 17-12 21-13 27-14 27-11 23-7z" fill="#C69C6D"/>
</svg>
