<?xml version="1.0" encoding="UTF-8"?>
<svg version="1.1" viewBox="0 0 2048 2048" width="1280" height="1280" xmlns="http://www.w3.org/2000/svg">
<path transform="translate(1031,142)" d="m0 0h40l36 3 37 6 30 7 33 10 27 10 30 13 30 15 24 14 24 15 15 11 19 14 13 11 11 9 16 15 22 22 7 8 11 13 13 18 10 15 12 21 14 29 11 29 8 27 6 25 5 28 4 32 2 31v52l-3 44-6 48-7 40-9 41-10 39-12 40-12 37-15 41-14 35-18 42-16 35-20 41-19 37-12 22-15 27-16 27-17 29-24 38-11 17-28 42-16 23-12 17-26 36-16 21-12 16-33 42-14 17-8 10-11 13-9 11-11 13-24 28-10 11-7 8-10 11-7 8-12 13-2 3-3-1-13-17-12-15-15-20-10-13-28-38-13-18-32-46-24-36-13-20-16-25-13-21-17-28-17-29-16-28-13-24-12-22-17-33-24-48-15-33-13-29-15-36-15-38-16-44-17-52-12-42-13-52-8-38-7-41-5-38-3-31-2-34v-58l3-42 5-37 6-31 8-31 12-36 12-28 12-24 15-25 14-20 13-16 9-11 16-17 21-21 8-7 15-13 14-11 20-15 24-16 20-12 22-12 31-15 31-12 28-9 28-7 33-6 28-3zm18 28-26 1-29 3-29 5-32 8-36 12-28 12-32 16-22 13-27 18-19 14-13 11-11 9-13 12-10 9-13 13-7 8-10 11-11 14-13 18-13 21-12 23-9 19-11 29-9 30-7 30-6 37-3 29-2 42v25l2 44 5 49 6 39 7 38 11 48 13 48 15 48 13 38 17 45 19 46 19 43 17 36 9 19 8 15 8 16 16 31 13 23 13 24 14 24 17 29 15 24 13 21 16 25 28 42 15 22 14 20 12 17 13 18 14 19 16 21 9 12 10 13 5 5 12-13 7-8 12-14 9-10 9-11 13-15 9-11 11-13 8-10 13-16 11-14 14-18 10-13 16-21 14-19 26-36 11-16 16-23 23-35 11-17 12-19 14-23 12-20 14-24 14-25 12-22 10-18 30-60 15-33 15-34 18-45 13-35 12-36 11-35 12-45 11-50 8-49 4-35 2-29 1-28v-14l-2-43-4-34-5-28-8-32-10-30-10-23-12-24-13-21-14-19-11-13-7-8-11-12-15-15-8-7-14-12-15-12-19-14-15-10-19-12-25-14-15-8-31-14-35-13-34-10-33-7-27-4-22-2z" fill="#C69C6D"/>
<path transform="translate(515,923)" d="m0 0h1v79l2 42 4 43 6 42 6 31 6 24 4 13-1 2-8-8-8-7-8-8-8-7-11-11-8-7-8-8-8-7-8-8-8-7-7-7-2 6-6 32-4 32-2 25-1 27v15l2 42 4 35 6 35 7 29 7 25 9 27 11 28 11 24 15 30 16 27 18 27 13 18 13 16 9 11 10 11 7 8 8 8 7 8 13 12 15 14 11 9 16 13 19 14 24 16 25 15 22 12 12 6-2 6-9 19-3 1-29-15-22-13-22-14-18-13-16-12-14-11-15-13-12-11-13-12-17-17-7-8-11-12-9-11-13-16-14-19-18-27-15-25-13-24-12-24-13-31-13-36-10-35-7-30-7-41-3-27-2-31v-51l2-31 5-40 7-37 2-9-5-1-114-7-10-1 4-3 28-15 21-13 18-12 17-12 19-14 16-13 10-8 11-9 15-13 10-9 24-22z" fill="#C69C6D"/>
<path transform="translate(1564,951)" d="m0 0 4 4 12 24 12 27 12 31 11 34 8 30 8 40 5 37 2 23 1 17v51l-2 31-4 34-7 39-10 40-9 29-12 32-13 30-15 30-13 23-15 24-11 16-14 19-11 14-11 13-12 14-7 7-3 4 11 8 44 29 43 29 9 6-4 1-21-1h-21l-40 2-45 5-39 6-36 7-39 9-30 8 2-5 14-23 13-22 16-29 23-46 14-32 11-28 12-35 9-33 2 2 19 64 15 50v3l6-5 7-8 12-14 13-17 12-16 18-27 12-20 10-18 16-32 14-34 10-28 8-28 6-24 6-31 5-37 2-26 1-27v-15l-1-29-4-41-6-36-6-27-7-26-12-36-11-28-12-26-10-20v-3z" fill="#C69C6D"/>
<path transform="translate(1029,373)" d="m0 0h42l28 4 24 6 20 7 24 11 17 10 17 12 11 9 10 9 17 17 11 14 10 14 10 17 8 16 8 19 7 23 5 25 2 18v39l-4 29-6 24-7 20-11 24-13 22-12 16-11 13-11 12-8 7-10 9-18 13-15 9-23 12-24 9-22 6-23 4-27 2h-11l-27-2-26-5-21-6-21-8-16-8-18-10-17-12-13-11-10-9-12-12-9-11-10-13-13-21-8-15-10-25-7-23-4-20-2-16-1-15v-18l2-24 4-22 6-22 8-22 8-16 10-18 11-16 13-16 14-15 13-12 13-10 18-12 16-9 19-9 20-7 17-5 21-4zm8 28-26 3-25 6-20 7-25 12-16 10-12 9-11 9-21 21-13 17-11 17-9 17-9 23-6 21-4 23-1 10v34l3 24 6 24 7 20 10 21 11 18 12 16 11 12 7 8 10 9 15 12 19 12 17 9 23 9 21 6 23 4 11 1h31l19-2 23-5 17-5 21-9 21-11 20-14 15-13 16-16 11-14 10-14 10-18 8-17 9-27 5-25 2-21v-22l-3-27-6-25-6-18-9-20-11-19-10-14-9-11-9-10-11-11-14-11-14-10-17-10-17-8-22-8-25-6-26-3z" fill="#C69C6D"/>
<path transform="translate(999,1754)" d="m0 0h21l16 4 16 8 8 6 7 6 9 12 7 14 4 14 1 18-2 15-5 14-6 11-9 11-10 9-14 8-15 5-15 2-15-1-15-4-16-8-10-8-8-8-9-14-5-13-3-14v-18l3-14 5-13 8-12 11-12 10-7 14-7zm5 28-12 3-12 6-11 11-5 8-4 12-1 12 2 12 5 12 8 10 9 7 11 5 8 2h15l13-4 10-6 10-10 7-14 2-7v-17l-4-13-7-11-8-8-11-6-9-3-5-1z" fill="#C69C6D"/>
</svg>
