<?xml version="1.0" encoding="UTF-8"?>
<svg version="1.1" viewBox="0 0 2048 2048" width="1280" height="1280" xmlns="http://www.w3.org/2000/svg">
<path transform="translate(133,120)" d="m0 0 5 5 13 15 12 14 9 10 7 8 14 15 43 43 8 7 15 14 11 9 11 10 11 9 17 14 13 10 21 16 18 13 20 14 35 23 26 16 26 15 18 10 28 15 22 11 33 15 30 13 39 15 37 13 39 12 42 11 40 9 43 8 42 6 38 4 24 2 44 2h60l43-2 45-4 46-6 41-7 42-9 40-10 47-14 38-13 34-13 31-13 33-15 29-14 29-15 23-13 26-15 24-15 44-29 15-11 18-13 17-13 14-11 16-13 13-11 11-9 11-10 8-7 13-12 12-11 42-42 7-8 12-13 9-11 9-10 9-11 3-2 2 324 1 116 3 218 4 249 3 236 1 148v209l-32 1-27 2-35 5-37 8-36 10-36 12-32 12-29 12-30 13-32 15-28 13-100 50-15 8-16 8-68 33-33 15-37 16-33 13-30 11-38 12-44 11-32 6-32 4-14 1h-56l-34-3-43-7-38-9-35-10-47-16-28-11-31-13-36-16-34-16-29-14-38-19-23-11-80-40-28-13-32-15-30-13-37-15-30-11-36-12-37-10-31-7-31-5-27-3-41-2-10-4-2-297-1-116-3-218-4-249-3-236-1-147zm28 76v38l1 217 3 255 3 192 3 197 2 173 1 114 1 211 39 3 36 5 39 8 41 11 37 12 35 13 39 16 36 16 28 13 52 25 104 52 23 11 31 15 33 15 37 16 38 15 34 12 25 8 37 10 33 7 33 5 19 2 17 1h40l26-2 35-5 37-8 36-10 36-12 37-14 38-16 33-15 34-16 41-20 60-30 19-10 36-18 23-11 33-16 36-16 25-11 35-14 36-13 35-11 35-9 35-7 29-4 36-3v-62l-1-217-3-255-3-192-3-197-2-173-1-114-1-187-7 6-12 13-20 20-8 7-9 9-8 7-13 12-11 9-11 10-11 9-17 14-13 10-21 16-18 13-17 12-42 28-21 13-27 16-25 14-42 22-38 18-30 13-38 15-36 13-37 12-43 12-42 10-45 9-46 7-44 5-40 3-20 1h-89l-49-3-40-4-49-7-44-8-48-11-37-10-42-13-40-14-33-13-35-15-28-13-32-16-27-14-23-13-28-17-18-11-42-28-36-26-18-14-14-11-16-13-13-11-14-12-11-10-8-7-13-12-8-8-8-7-24-24-7-8z" fill="#C69C6D"/>
<path transform="translate(822,860)" d="m0 0h435l1 6 5 115v8h-16l-11-33-8-16-7-11-11-12-11-8-16-8-21-5-19-2-155-1v230l115-1 16-2 16-5 10-6 8-8 8-16 5-16 5-27h16v199h-16l-2-25-4-18-7-14-10-11-14-8-15-4-8-1-123-1 1 205 2 23 4 16 6 8 7 6 16 8 17 4 32 1v16l-1 1h-250l-1-1v-16l34-1 14-3 10-4 11-8 6-8 4-11 3-18 1-12v-426l-2-21-3-12-6-10-9-7-14-7-16-4-33-1v-16z" fill="#C69C6D"/>
</svg>
