<?xml version="1.0" encoding="UTF-8"?>
<svg version="1.1" viewBox="0 0 2048 2048" width="1280" height="1280" xmlns="http://www.w3.org/2000/svg">
<path transform="translate(879,155)" d="m0 0 4 2 11 14 12 16 7 9 12 14 9 10 16 17 12 12 8 7 14 13 11 9 16 13 11 8 41-7 34-4 28-2h47l37 3 33 5 28 6 29 8 31 11 23 10 27 13 24 14 19 12 18 13 13 10 13 11 11 9 5 1 36-7 40-10 43-14 30-12 29-13 20-10 18-10 3 3 13 20-5 5-19 14-13 11-11 9-17 16-27 27-7 8-12 14-13 17-12 16-11 17 7 11 17 28 15 29 13 36 11 38 9 37 8 43 5 37 3 37 1 20v44l-2 34-4 35-6 34-7 30-9 30-11 31-12 27-12 24 4 7 9 12 10 13v2l-14 11-6 5-4-1-13-16-4-4-2 5-8 12-10 14-13 17-11 13-12 14-37 37-8 7-12 11-8 7-13 12-8 7-11 10-8 7-10 9-11 9-15 14-11 9-13 12-11 9-14 13-11 9-13 12-8 7-14 12-14 13-8 7-12 11-16 15-23 23-7 8-14 17-12 18-11 21-7 19-6 25-4 26-2 21v28l3 19 6 19 8 18 11 19 9 12 9 11 9 10 20 20 11 9 15 12 18 13 19 12 17 10 22 12 25 12 49 20 17 7v1h-978l3-2 73-29 19-10 17-11 16-12 14-12 16-16 11-14 10-15 9-17 7-18 6-25 2-22v-12l-2-23-5-25-7-22-6-16v-2l-18 1-155 4h-24l1-13 24-158-8-1-8-2 1-8 18-68 1-5-5-2-13-4-12-2h-48l-42 5-14 2h-5l2-5 13-21 14-24 10-18 14-26 19-38 14-31 15-37 10-28 8-25 9-36 5-30 1-10v-32l-3-19-5-16-7-14-9-11-2-2v-7l7-29 9-32 12-37 15-40 14-33 12-26 12-25 13-25 14-24 8-14 15-24 17-25 10-14 12-16 14-18 11-13 9-11 14-15 7-8 37-37 8-7 11-10 11-9 16-13 16-12 18-13 23-15 25-15 18-10 27-14 31-14 28-11 28-10 9-2-13-25-17-28-11-18-15-22-13-18-13-16-13-18 2-4zm99 147 2 6 14 28 14 33 12 34 8 26 9 38 6 37 3 34v49l-3 33-6 36-8 32-12 36-9 22-12 26-14 26-13 21-15 22-14 19-9 11-11 13-9 11-12 12-7 8-10 10 3 1 30-9 33-8 36-7 38-5 38-3h65l38 3 37 5 36 7 32 8 39 12 32 12 32 14 19 9 22 12 21 12 19 12 12 8 17 12 16 12 16 13 6 4-2-6-15-34-13-35-9-28-10-40-6-32-4-30-2-26v-62l4-40 6-35 10-40 12-36 11-28 10-22 10-19 10-18 13-21 13-19 14-19 13-16 11-13 12-13 8-9-2-1-22 8-41 12-30 7-38 7-31 4-41 3h-51l-30-2-35-4-39-7-34-8-30-9-24-8-30-12-33-15-25-13-27-16-19-12-20-14-21-16-10-8zm164 12-39 2-35 4-12 2v2l25 15 18 10 23 12 31 14 35 13 28 9 31 8 28 6 40 6 35 3 24 1h21l38-2 8-1-5-5-20-15-21-14-15-9-18-10-29-14-26-10-24-8-31-8-33-6-27-3-12-1-25-1zm-179 30-33 11-30 12-29 13-28 14-24 14-20 12-22 15-14 10-17 13-11 9-13 11-14 12-17 16-25 25-7 8-11 12-9 11-12 14-10 13-15 20-14 20-17 26-17 28-15 27-15 29-14 29-15 35-15 39-12 35-12 42-4 18 7 10 7 14 6 18 3 15 1 8v44l-4 29-6 28-8 29-12 36-11 28-12 28-12 26-14 29-16 31-12 21 1 3 14-1h33l18 2 17 4 10 4 10 7 7 8 3 8v7l-14 53 1 4 56 12h3l-3 23v5l-26-1h-23l-3 16-16 106v5l172-4h10l12 28 9 27 6 26 3 25v31l-2 18-5 22-6 18-9 20-12 20-13 17-9 10-10 11-8 7-14 12-14 10v1h718l-3-3-26-16-17-12-17-13-13-11-8-7-15-14-12-13-13-16-14-21-10-18-9-22-6-23-3-24v-17l3-32 5-32 7-26 6-16 10-21 12-19 11-14 9-11 14-15 32-32 8-7 16-15 8-7 10-9 14-12 12-11 11-9 13-12 11-9 13-12 11-9 14-13 8-7 14-12 13-12 8-7 12-11 8-7 10-9 12-11 10-9 13-12 21-21 7-8 13-15 13-17 13-18 12-19 1-3-14-15-8-8-8-7-7-7-8-7-14-12-14-11-18-14-19-13-15-10-25-15-22-12-19-10-29-13-34-13-30-10-38-10-40-8-38-5-24-2-19-1h-43l-33 2-35 4-35 6-36 8-35 10-35 12-29 12-26 12-6 3-2-5-10-18v-2l17-12 13-10 13-11 11-9 17-16 28-28 7-8 12-14 11-14 15-20 12-18 13-21 13-24 11-23 13-33 9-29 7-30 4-23 3-29 1-17v-26l-2-30-4-31-6-31-8-30-12-36-11-28-9-20zm587 197-12 22-13 28-12 31-9 28-8 32-5 26-4 31-2 26v47l3 36 5 33 7 33 8 29 12 36 13 32 12 26 10 20 13 23 6 10 3-1 13-29 11-30 8-26 6-24 6-31 4-28 2-21 1-17v-65l-2-29-5-42-7-40-9-39-10-35-10-30-8-18-11-21-14-23z" fill="#C69C6D"/>
<path transform="translate(560,907)" d="m0 0h18l18 4 17 8 12 9 13 13 11 15 10 18 10 23 9 28 6 24 6 26 11 33 12 25 9 13 11 13 12 9 12 6 10 3 7 1h16l15-3 15-5 16-8 10-6h2l9 12 7 9-1 3-15 9-16 8-21 7-16 3h-27l-17-4-12-5-11-6-13-10-11-11-11-15-9-15-9-19-7-19-7-23-11-46-11-33-11-23-8-12-8-10-10-9-10-6-13-4-12-1-14 2-15 5-16 8-12 9-4-2-12-13-4-5v-2l15-11 21-11 21-7z" fill="#C69C6D"/>
</svg>
