<svg xmlns="http://www.w3.org/2000/svg" xmlns:xlink="http://www.w3.org/1999/xlink" width="1080" zoomAndPan="magnify" viewBox="0 0 810 809.999993" height="1080" preserveAspectRatio="xMidYMid meet" version="1.0"><path fill="#d4b592" d="M 367.761719 275.695312 C 372.40625 275.695312 376.175781 271.929688 376.175781 267.28125 C 376.175781 262.636719 372.40625 258.867188 367.761719 258.867188 C 266.664062 258.867188 184.410156 341.128906 184.410156 442.238281 C 184.410156 543.335938 266.664062 625.589844 367.761719 625.589844 C 468.859375 625.589844 551.121094 543.335938 551.121094 442.238281 C 551.121094 437.59375 547.351562 433.824219 542.707031 433.824219 C 538.058594 433.824219 534.292969 437.59375 534.292969 442.238281 C 534.292969 534.066406 459.589844 608.769531 367.761719 608.769531 C 275.933594 608.769531 201.230469 534.066406 201.230469 442.238281 C 201.230469 350.410156 275.933594 275.695312 367.761719 275.695312 " fill-opacity="1" fill-rule="nonzero"/><path fill="#d4b592" d="M 646.058594 433.824219 C 641.414062 433.824219 637.644531 437.59375 637.644531 442.238281 C 637.644531 591.046875 516.570312 712.109375 367.761719 712.109375 C 218.953125 712.109375 97.878906 591.046875 97.878906 442.238281 C 97.878906 293.417969 218.953125 172.355469 367.761719 172.355469 C 372.40625 172.355469 376.175781 168.585938 376.175781 163.941406 C 376.175781 159.296875 372.40625 155.527344 367.761719 155.527344 C 209.664062 155.527344 81.050781 284.140625 81.050781 442.238281 C 81.050781 600.324219 209.664062 728.9375 367.761719 728.9375 C 525.859375 728.9375 654.472656 600.324219 654.472656 442.238281 C 654.472656 437.59375 650.703125 433.824219 646.058594 433.824219 " fill-opacity="1" fill-rule="nonzero"/><path fill="#d4b592" d="M 600.886719 288.585938 L 542.277344 279.628906 L 564.632812 257.273438 L 604.855469 257.007812 C 609.492188 256.976562 613.222656 253.1875 613.195312 248.539062 C 613.179688 243.917969 609.410156 240.183594 604.789062 240.183594 C 604.765625 240.183594 604.742188 240.183594 604.71875 240.183594 L 581.566406 240.332031 L 601.125 220.777344 L 641.304688 220.527344 C 645.953125 220.488281 649.695312 216.703125 649.671875 212.058594 C 649.648438 207.4375 645.886719 203.703125 641.265625 203.703125 C 641.242188 203.703125 641.21875 203.703125 641.21875 203.703125 L 618.0625 203.84375 L 643.769531 178.136719 L 702.375 187.09375 Z M 433.65625 442.238281 C 433.65625 478.566406 404.109375 508.128906 367.761719 508.128906 C 331.421875 508.128906 301.871094 478.566406 301.871094 442.238281 C 301.871094 405.902344 331.421875 376.34375 367.761719 376.34375 C 382.894531 376.34375 396.679688 381.675781 407.8125 390.277344 L 361.804688 436.292969 C 358.542969 439.578125 358.542969 444.898438 361.804688 448.183594 C 363.445312 449.828125 365.613281 450.652344 367.761719 450.652344 C 369.910156 450.652344 372.078125 449.828125 373.71875 448.183594 L 419.71875 402.1875 C 428.324219 413.320312 433.65625 427.105469 433.65625 442.238281 Z M 521.414062 209.113281 L 622.90625 107.625 L 631.863281 166.230469 L 610.394531 187.699219 C 610.386719 187.707031 610.375 187.707031 610.371094 187.707031 L 606.148438 191.933594 L 606.296875 168.78125 C 606.320312 164.136719 602.597656 160.34375 597.953125 160.316406 C 597.929688 160.316406 597.910156 160.316406 597.886719 160.316406 C 593.265625 160.316406 589.496094 164.046875 589.472656 168.671875 L 589.210938 208.867188 L 569.65625 228.433594 L 569.800781 205.269531 C 569.828125 200.625 566.097656 196.832031 561.453125 196.804688 C 561.4375 196.804688 561.414062 196.804688 561.390625 196.804688 C 556.773438 196.804688 553.003906 200.535156 552.980469 205.15625 L 552.714844 245.367188 L 530.371094 267.71875 Z M 728.078125 178.671875 C 727.089844 175.660156 724.484375 173.457031 721.347656 172.980469 L 648.214844 161.796875 L 637.03125 88.652344 C 636.554688 85.515625 634.339844 82.910156 631.339844 81.921875 C 628.253906 80.957031 625.007812 81.738281 622.746094 83.972656 L 506.496094 200.230469 C 504.609375 202.125 503.734375 204.792969 504.128906 207.449219 L 515.597656 282.492188 L 419.699219 378.386719 C 405.457031 366.777344 387.535156 359.519531 367.761719 359.519531 C 322.152344 359.519531 285.042969 396.628906 285.042969 442.238281 C 285.042969 487.847656 322.152344 524.953125 367.761719 524.953125 C 413.371094 524.953125 450.480469 487.847656 450.480469 442.238281 C 450.480469 422.464844 443.222656 404.542969 431.605469 390.292969 L 527.507812 294.390625 L 602.550781 305.859375 C 602.96875 305.925781 603.40625 305.960938 603.824219 305.960938 C 606.039062 305.960938 608.179688 305.082031 609.78125 303.492188 L 726.039062 187.242188 C 728.273438 184.992188 729.0625 181.683594 728.078125 178.671875 " fill-opacity="1" fill-rule="nonzero"/></svg>