<svg xmlns="http://www.w3.org/2000/svg" xmlns:xlink="http://www.w3.org/1999/xlink" width="1080" zoomAndPan="magnify" viewBox="0 0 810 809.999993" height="1080" preserveAspectRatio="xMidYMid meet" version="1.0"><defs><clipPath id="4c1ae39bab"><path d="M 81 134.460938 L 729 134.460938 L 729 675.210938 L 81 675.210938 Z M 81 134.460938 " clip-rule="nonzero"/></clipPath></defs><g clip-path="url(#4c1ae39bab)"><path fill="#d4b592" d="M 391.691406 146.007812 L 323.03125 219.289062 L 268.164062 277.863281 L 207.875 146.007812 Z M 541.835938 277.863281 L 486.972656 219.289062 L 418.316406 146.007812 L 602.125 146.007812 Z M 547.554688 293.859375 L 710.910156 293.859375 L 442.246094 616.109375 L 421.664062 640.800781 Z M 262.453125 293.859375 L 388.34375 640.800781 L 367.753906 616.109375 L 99.097656 293.859375 Z M 257.511719 282.3125 L 98.386719 282.3125 L 197.660156 151.414062 Z M 279.8125 282.3125 L 405.003906 148.679688 L 530.195312 282.3125 Z M 535.273438 293.859375 L 405.003906 652.882812 L 274.734375 293.859375 Z M 711.621094 282.3125 L 552.496094 282.3125 L 612.347656 151.414062 Z M 729.003906 288.128906 C 729.003906 288.015625 728.996094 287.898438 728.988281 287.78125 C 728.984375 287.648438 728.972656 287.519531 728.957031 287.390625 C 728.953125 287.339844 728.953125 287.289062 728.945312 287.238281 C 728.933594 287.160156 728.910156 287.070312 728.890625 286.984375 C 728.867188 286.855469 728.835938 286.71875 728.804688 286.585938 C 728.777344 286.519531 728.765625 286.445312 728.746094 286.371094 C 728.730469 286.308594 728.699219 286.25 728.679688 286.191406 C 728.636719 286.066406 728.585938 285.941406 728.535156 285.816406 C 728.503906 285.753906 728.492188 285.699219 728.460938 285.636719 C 728.449219 285.597656 728.425781 285.566406 728.40625 285.53125 C 728.375 285.476562 728.347656 285.417969 728.324219 285.371094 C 728.273438 285.277344 728.210938 285.183594 728.15625 285.089844 C 728.089844 284.976562 728.019531 284.867188 727.945312 284.761719 C 727.902344 284.710938 727.878906 284.648438 727.832031 284.597656 L 615.714844 136.746094 C 615.683594 136.710938 615.648438 136.679688 615.617188 136.640625 C 615.542969 136.542969 615.453125 136.441406 615.367188 136.347656 C 615.289062 136.261719 615.207031 136.175781 615.121094 136.09375 C 615.03125 136.007812 614.933594 135.921875 614.839844 135.839844 C 614.746094 135.765625 614.660156 135.691406 614.574219 135.621094 C 614.46875 135.542969 614.355469 135.472656 614.25 135.40625 C 614.15625 135.34375 614.0625 135.28125 613.964844 135.222656 C 613.851562 135.15625 613.734375 135.101562 613.617188 135.042969 C 613.515625 135 613.417969 134.945312 613.3125 134.902344 C 613.191406 134.851562 613.070312 134.8125 612.949219 134.769531 C 612.839844 134.738281 612.734375 134.695312 612.621094 134.671875 C 612.503906 134.632812 612.386719 134.617188 612.265625 134.589844 C 612.144531 134.566406 612.023438 134.539062 611.898438 134.523438 C 611.789062 134.503906 611.671875 134.496094 611.558594 134.492188 C 611.429688 134.480469 611.296875 134.464844 611.167969 134.464844 C 611.148438 134.464844 611.128906 134.464844 611.109375 134.464844 L 198.894531 134.464844 C 198.878906 134.464844 198.867188 134.464844 198.847656 134.464844 C 198.699219 134.464844 198.546875 134.484375 198.394531 134.496094 C 198.304688 134.503906 198.210938 134.503906 198.121094 134.515625 C 197.96875 134.539062 197.828125 134.570312 197.683594 134.601562 C 197.589844 134.621094 197.492188 134.640625 197.40625 134.664062 C 197.269531 134.695312 197.136719 134.746094 197.007812 134.789062 C 196.90625 134.828125 196.808594 134.859375 196.707031 134.894531 C 196.589844 134.945312 196.472656 135.007812 196.355469 135.0625 C 196.253906 135.113281 196.15625 135.164062 196.054688 135.21875 C 195.945312 135.28125 195.84375 135.347656 195.738281 135.417969 C 195.640625 135.480469 195.539062 135.542969 195.441406 135.617188 C 195.347656 135.691406 195.253906 135.765625 195.160156 135.847656 C 195.066406 135.925781 194.976562 136.007812 194.886719 136.089844 C 194.800781 136.175781 194.71875 136.261719 194.640625 136.347656 C 194.550781 136.441406 194.464844 136.542969 194.390625 136.640625 C 194.359375 136.679688 194.324219 136.710938 194.296875 136.746094 L 82.171875 284.597656 C 82.128906 284.648438 82.097656 284.710938 82.0625 284.761719 C 81.988281 284.867188 81.917969 284.976562 81.851562 285.089844 C 81.792969 285.183594 81.734375 285.277344 81.683594 285.371094 C 81.65625 285.417969 81.625 285.476562 81.601562 285.53125 C 81.582031 285.566406 81.558594 285.597656 81.546875 285.636719 C 81.515625 285.699219 81.503906 285.753906 81.476562 285.816406 C 81.421875 285.941406 81.371094 286.066406 81.328125 286.191406 C 81.308594 286.25 81.277344 286.308594 81.261719 286.371094 C 81.242188 286.445312 81.222656 286.519531 81.203125 286.585938 C 81.171875 286.71875 81.140625 286.855469 81.117188 286.992188 C 81.097656 287.070312 81.074219 287.160156 81.0625 287.238281 C 81.054688 287.289062 81.054688 287.339844 81.050781 287.390625 C 81.035156 287.519531 81.023438 287.648438 81.019531 287.78125 C 81.011719 287.898438 81.003906 288.015625 81.003906 288.128906 C 81.003906 288.179688 81.003906 288.222656 81.003906 288.269531 C 81.011719 288.371094 81.023438 288.476562 81.03125 288.574219 C 81.042969 288.710938 81.054688 288.84375 81.078125 288.972656 C 81.085938 289.03125 81.085938 289.085938 81.097656 289.148438 C 81.109375 289.199219 81.128906 289.246094 81.136719 289.296875 C 81.140625 289.320312 81.148438 289.347656 81.15625 289.363281 C 81.1875 289.496094 81.214844 289.625 81.253906 289.757812 C 81.277344 289.835938 81.304688 289.917969 81.335938 290 C 81.359375 290.074219 81.382812 290.140625 81.414062 290.210938 C 81.460938 290.316406 81.496094 290.414062 81.546875 290.515625 C 81.566406 290.558594 81.578125 290.609375 81.601562 290.652344 C 81.632812 290.714844 81.671875 290.761719 81.703125 290.824219 C 81.738281 290.886719 81.769531 290.957031 81.8125 291.023438 C 81.851562 291.09375 81.894531 291.160156 81.945312 291.230469 C 82.019531 291.339844 82.097656 291.453125 82.1875 291.566406 C 82.234375 291.640625 82.28125 291.714844 82.335938 291.78125 L 400.566406 673.484375 C 400.808594 673.789062 401.101562 674.054688 401.40625 674.296875 C 401.4375 674.324219 401.460938 674.355469 401.492188 674.378906 C 401.566406 674.433594 401.652344 674.472656 401.734375 674.527344 C 401.867188 674.621094 401.984375 674.71875 402.125 674.800781 C 402.230469 674.863281 402.34375 674.914062 402.449219 674.960938 C 402.492188 674.980469 402.53125 675.011719 402.566406 675.03125 C 402.605469 675.050781 402.636719 675.054688 402.667969 675.066406 C 402.996094 675.210938 403.332031 675.328125 403.679688 675.410156 C 403.703125 675.417969 403.730469 675.429688 403.753906 675.433594 C 403.796875 675.441406 403.839844 675.441406 403.886719 675.449219 C 404.25 675.523438 404.625 675.570312 404.996094 675.570312 L 405.003906 675.570312 C 405.382812 675.570312 405.753906 675.523438 406.121094 675.449219 C 406.164062 675.441406 406.210938 675.441406 406.246094 675.433594 C 406.277344 675.429688 406.300781 675.417969 406.328125 675.410156 C 406.675781 675.328125 407.011719 675.210938 407.339844 675.066406 C 407.371094 675.054688 407.402344 675.042969 407.433594 675.03125 C 407.476562 675.011719 407.515625 674.980469 407.558594 674.960938 C 407.664062 674.914062 407.777344 674.863281 407.882812 674.800781 C 408.023438 674.71875 408.148438 674.613281 408.285156 674.519531 C 408.359375 674.472656 408.441406 674.433594 408.507812 674.382812 C 408.546875 674.355469 408.570312 674.324219 408.601562 674.296875 C 408.90625 674.054688 409.191406 673.789062 409.441406 673.484375 L 727.671875 291.78125 C 727.726562 291.714844 727.773438 291.640625 727.820312 291.566406 C 727.910156 291.453125 727.988281 291.339844 728.070312 291.230469 C 728.105469 291.160156 728.15625 291.09375 728.195312 291.023438 C 728.230469 290.957031 728.269531 290.886719 728.304688 290.824219 C 728.335938 290.761719 728.375 290.714844 728.40625 290.652344 C 728.425781 290.609375 728.441406 290.558594 728.460938 290.515625 C 728.503906 290.414062 728.546875 290.316406 728.59375 290.210938 C 728.617188 290.140625 728.648438 290.066406 728.671875 290 C 728.703125 289.917969 728.730469 289.835938 728.753906 289.757812 C 728.789062 289.625 728.820312 289.496094 728.851562 289.363281 C 728.859375 289.347656 728.867188 289.320312 728.871094 289.296875 C 728.878906 289.246094 728.894531 289.199219 728.910156 289.148438 C 728.921875 289.085938 728.921875 289.03125 728.933594 288.972656 C 728.953125 288.84375 728.964844 288.710938 728.976562 288.574219 C 728.984375 288.476562 728.996094 288.371094 729.003906 288.269531 C 729.003906 288.222656 729.003906 288.179688 729.003906 288.128906 " fill-opacity="1" fill-rule="nonzero"/></g></svg>