<svg xmlns="http://www.w3.org/2000/svg" xmlns:xlink="http://www.w3.org/1999/xlink" width="1080" zoomAndPan="magnify" viewBox="0 0 810 809.999993" height="1080" preserveAspectRatio="xMidYMid meet" version="1.0"><path fill="#d4b592" d="M 297.195312 572.65625 L 219.320312 572.65625 C 216.019531 572.65625 213.308594 569.945312 213.308594 566.648438 L 213.308594 488.769531 C 213.308594 485.46875 216.019531 482.761719 219.320312 482.761719 C 222.617188 482.761719 225.328125 485.46875 225.328125 488.769531 L 225.328125 560.636719 L 297.195312 560.636719 C 300.496094 560.636719 303.207031 563.347656 303.207031 566.648438 C 303.207031 569.945312 300.496094 572.65625 297.195312 572.65625 Z M 297.195312 572.65625 " fill-opacity="1" fill-rule="nonzero"/><path fill="#d4b592" d="M 590.5625 327.121094 C 587.265625 327.121094 584.554688 324.414062 584.554688 321.113281 L 584.554688 249.246094 L 512.6875 249.246094 C 509.386719 249.246094 506.675781 246.535156 506.675781 243.234375 C 506.675781 239.9375 509.386719 237.226562 512.6875 237.226562 L 590.5625 237.226562 C 593.863281 237.226562 596.574219 239.9375 596.574219 243.234375 L 596.574219 321.113281 C 596.574219 324.53125 593.863281 327.121094 590.5625 327.121094 Z M 590.5625 327.121094 " fill-opacity="1" fill-rule="nonzero"/><path fill="#d4b592" d="M 219.4375 327.121094 C 216.136719 327.121094 213.425781 324.414062 213.425781 321.113281 L 213.425781 243.234375 C 213.425781 239.9375 216.136719 237.226562 219.4375 237.226562 L 297.3125 237.226562 C 300.613281 237.226562 303.324219 239.9375 303.324219 243.234375 C 303.324219 246.535156 300.613281 249.246094 297.3125 249.246094 L 225.445312 249.246094 L 225.445312 321.113281 C 225.328125 324.53125 222.734375 327.121094 219.4375 327.121094 Z M 219.4375 327.121094 " fill-opacity="1" fill-rule="nonzero"/><path fill="#d4b592" d="M 590.5625 572.65625 L 512.6875 572.65625 C 509.386719 572.65625 506.675781 569.945312 506.675781 566.648438 C 506.675781 563.347656 509.386719 560.636719 512.6875 560.636719 L 584.554688 560.636719 L 584.554688 488.769531 C 584.554688 485.46875 587.265625 482.761719 590.5625 482.761719 C 593.863281 482.761719 596.574219 485.46875 596.574219 488.769531 L 596.574219 566.648438 C 596.574219 569.945312 593.863281 572.65625 590.5625 572.65625 Z M 590.5625 572.65625 " fill-opacity="1" fill-rule="nonzero"/><path fill="#d4b592" d="M 405 499.726562 C 369.773438 499.726562 334.898438 491.125 303.910156 474.867188 C 273.984375 459.078125 247.710938 436.222656 228.035156 408.535156 C 226.503906 406.414062 226.503906 403.703125 228.035156 401.582031 C 247.710938 374.015625 273.984375 351.039062 303.910156 335.25 C 334.898438 318.992188 369.773438 310.390625 405 310.390625 C 440.226562 310.390625 475.101562 318.992188 506.089844 335.25 C 536.015625 351.039062 562.289062 373.894531 581.960938 401.582031 C 583.496094 403.703125 583.496094 406.414062 581.960938 408.535156 C 562.289062 436.105469 536.015625 459.078125 506.089844 474.867188 C 475.101562 491.125 440.226562 499.726562 405 499.726562 Z M 240.289062 405 C 278.933594 456.839844 340.199219 487.707031 405 487.707031 C 469.800781 487.707031 531.066406 456.839844 569.710938 405 C 531.066406 353.160156 469.800781 322.292969 405 322.292969 C 340.199219 322.292969 278.933594 353.160156 240.289062 405 Z M 240.289062 405 " fill-opacity="1" fill-rule="nonzero"/><path fill="#d4b592" d="M 405 464.851562 C 372.011719 464.851562 345.148438 437.988281 345.148438 405 C 345.148438 372.011719 372.011719 345.148438 405 345.148438 C 437.988281 345.148438 464.851562 372.011719 464.851562 405 C 464.851562 437.988281 437.988281 464.851562 405 464.851562 Z M 405 357.046875 C 378.609375 357.046875 357.046875 378.492188 357.046875 405 C 357.046875 431.507812 378.492188 452.953125 405 452.953125 C 431.507812 452.953125 452.953125 431.507812 452.953125 405 C 452.953125 378.492188 431.390625 357.046875 405 357.046875 Z M 405 357.046875 " fill-opacity="1" fill-rule="nonzero"/><path fill="#d4b592" d="M 405 428.917969 C 391.804688 428.917969 381.082031 418.195312 381.082031 405 C 381.082031 391.804688 391.804688 381.082031 405 381.082031 C 418.195312 381.082031 428.917969 391.804688 428.917969 405 C 428.917969 418.195312 418.195312 428.917969 405 428.917969 Z M 405 392.984375 C 398.402344 392.984375 392.984375 398.402344 392.984375 405 C 392.984375 411.597656 398.402344 417.015625 405 417.015625 C 411.597656 417.015625 417.015625 411.597656 417.015625 405 C 417.015625 398.402344 411.597656 392.984375 405 392.984375 Z M 405 392.984375 " fill-opacity="1" fill-rule="nonzero"/><path fill="#d4b592" d="M 405 729 C 361.171875 729 318.757812 720.515625 278.933594 703.550781 C 240.289062 687.292969 205.652344 663.847656 175.960938 634.039062 C 146.152344 604.230469 122.824219 569.59375 106.449219 531.066406 C 89.484375 491.125 81 448.710938 81 405 C 81 361.289062 89.484375 318.757812 106.449219 278.933594 C 122.707031 240.289062 146.152344 205.652344 175.960938 175.960938 C 205.769531 146.269531 240.40625 122.824219 278.933594 106.449219 C 318.875 89.484375 361.289062 81 405 81 C 448.710938 81 491.242188 89.484375 531.066406 106.449219 C 569.710938 122.707031 604.347656 146.152344 634.039062 175.960938 C 663.847656 205.769531 687.175781 240.40625 703.550781 278.933594 C 720.515625 318.875 729 361.289062 729 405 C 729 448.710938 720.515625 491.242188 703.550781 531.066406 C 687.292969 569.710938 663.847656 604.347656 634.039062 634.039062 C 604.230469 663.847656 569.59375 687.175781 531.066406 703.550781 C 491.242188 720.515625 448.828125 729 405 729 Z M 405 92.78125 C 232.984375 92.78125 92.898438 232.867188 92.898438 404.882812 C 92.898438 576.898438 232.984375 716.984375 405 716.984375 C 577.015625 716.984375 717.101562 577.015625 717.101562 404.882812 C 717.101562 232.75 577.015625 92.78125 405 92.78125 Z M 405 92.78125 " fill-opacity="1" fill-rule="nonzero"/></svg>